<svg width="27" height="24" viewBox="0 0 27 24" fill="none" xmlns="http://www.w3.org/2000/svg">
<path d="M1.12504 0C0.779841 0 0.5 0.261185 0.5 0.583374V22.9683C0.5 23.2543 0.618694 23.5274 0.827753 23.7225C1.01879 23.9008 1.27038 24 1.5317 24H25.5892C25.9344 24 26.2143 23.7388 26.2143 23.4166C26.2143 23.0944 25.9344 22.8333 25.5892 22.8333H3.75008C2.64552 22.8333 1.75009 21.9378 1.75009 20.8333V0.583374C1.75009 0.261185 1.47025 0 1.12504 0Z" fill="#C11574"/>
<path fill-rule="evenodd" clip-rule="evenodd" d="M6.12535 15.1478C4.99429 15.1357 4.00446 15.855 3.73972 16.8814C3.47499 17.9078 4.00566 18.9687 5.01872 19.4383C6.03179 19.908 7.25816 19.6616 7.97447 18.8445C8.69077 18.0274 8.70676 16.8567 8.01299 16.0229L10.9382 12.0209C11.192 12.1013 11.4577 12.1446 11.7257 12.1493C12.4107 12.1552 13.0657 11.8877 13.5259 11.4142L16.126 13.141C16.0861 13.3096 16.0651 13.4817 16.0635 13.6544C16.0635 14.8916 17.1381 15.8945 18.4637 15.8945C19.7893 15.8945 20.8639 14.8916 20.8639 13.6544C20.862 13.1475 20.672 12.6569 20.3263 12.2659L23.114 8.28732C24.249 8.62131 25.4737 8.11978 25.9788 7.11408C26.484 6.10837 26.1137 4.90899 25.1126 4.30835C24.1116 3.70771 22.7888 3.89125 22.0182 4.73771C21.2476 5.58417 21.2672 6.83221 22.064 7.65727L19.2888 11.5775C19.0131 11.4799 18.7211 11.4286 18.4262 11.4259C17.7709 11.4255 17.1436 11.6741 16.6886 12.1143L14.0759 10.4108C14.0889 10.2594 14.0889 10.1072 14.0759 9.95577C14.1268 8.94348 13.4432 8.02538 12.4089 7.71693C11.3746 7.40848 10.2473 7.78651 9.65985 8.63877C9.07239 9.49104 9.17112 10.6053 9.90062 11.3559L7.01292 15.3111C6.73128 15.2033 6.42978 15.1478 6.12535 15.1478ZM23.8141 5.1021C24.4493 5.1021 24.9642 5.58268 24.9642 6.17551C24.9642 6.76834 24.4493 7.24892 23.8141 7.24892C23.1789 7.24892 22.664 6.76834 22.664 6.17551C22.664 5.58268 23.1789 5.1021 23.8141 5.1021ZM19.5763 13.6544C19.5763 13.0615 19.0614 12.581 18.4262 12.581C17.791 12.581 17.2761 13.0615 17.2761 13.6544C17.2761 14.2472 17.791 14.7278 18.4262 14.7278C19.0614 14.7278 19.5763 14.2472 19.5763 13.6544ZM11.7257 8.83568C12.3609 8.83568 12.8758 9.31626 12.8758 9.90908C12.8758 10.5019 12.3609 10.9825 11.7257 10.9825C11.0905 10.9825 10.5756 10.5019 10.5756 9.90908C10.5756 9.31626 11.0905 8.83568 11.7257 8.83568ZM5.06064 17.7931C5.23709 18.1971 5.65795 18.4612 6.12536 18.4613C6.7509 18.4615 7.26184 17.995 7.27544 17.4113C7.2856 16.9751 7.01193 16.5766 6.58308 16.4031C6.15423 16.2296 5.65551 16.3155 5.32139 16.6206C4.98726 16.9257 4.8842 17.3892 5.06064 17.7931Z" fill="#C11574"/>
</svg>
