<svg width="24" height="21" viewBox="0 0 24 21" fill="none" xmlns="http://www.w3.org/2000/svg">
<path d="M7.55016 20.0356C16.6045 20.0356 21.5583 12.5323 21.5583 6.02751C21.5583 5.81657 21.5536 5.60094 21.5442 5.39001C22.5079 4.69311 23.3395 3.8299 24 2.84094C23.1025 3.24024 22.1496 3.50103 21.1739 3.61438C22.2013 2.99855 22.9705 2.03112 23.3391 0.891411C22.3726 1.4642 21.3156 1.86826 20.2134 2.08626C19.4708 1.29721 18.489 0.774761 17.4197 0.599696C16.3504 0.42463 15.2532 0.606695 14.2977 1.11774C13.3423 1.62879 12.5818 2.44035 12.1338 3.42696C11.6859 4.41356 11.5754 5.52026 11.8195 6.57594C9.86249 6.47774 7.94794 5.96935 6.19998 5.08374C4.45203 4.19814 2.90969 2.95508 1.67297 1.43516C1.0444 2.51889 0.852057 3.80129 1.13503 5.02174C1.418 6.24218 2.15506 7.30909 3.19641 8.00563C2.41463 7.98081 1.64998 7.77032 0.965625 7.39157V7.45251C0.964925 8.58979 1.3581 9.69223 2.07831 10.5724C2.79852 11.4526 3.80132 12.0562 4.91625 12.2806C4.19206 12.4788 3.43198 12.5076 2.69484 12.365C3.00945 13.3431 3.62157 14.1985 4.44577 14.812C5.26997 15.4254 6.26512 15.7662 7.29234 15.7869C5.54842 17.1568 3.39417 17.8998 1.17656 17.8963C0.783287 17.8957 0.390399 17.8715 0 17.8241C2.25286 19.2694 4.87353 20.037 7.55016 20.0356Z" fill="#98A2B3"/>
</svg>
