<svg width="27" height="26" viewBox="0 0 27 26" fill="none" xmlns="http://www.w3.org/2000/svg">
<path d="M0.933333 17.3083C0.694133 17.3083 0.5 17.1229 0.5 16.8945V2.24138C0.5 1.55697 1.08327 1 1.8 1H25.2C25.9167 1 26.5 1.55697 26.5 2.24138V6.30629C26.5 6.5347 26.3059 6.72008 26.0667 6.72008C25.8275 6.72008 25.6333 6.5347 25.6333 6.30629V2.24138C25.6333 2.01379 25.4383 1.82759 25.2 1.82759H1.8C1.56167 1.82759 1.36667 2.01379 1.36667 2.24138V16.8945C1.36667 17.1229 1.17253 17.3083 0.933333 17.3083Z" fill="#7F56D9" stroke="#7F56D9" stroke-width="0.6"/>
<path d="M13.5 25H8.73338C8.49418 25 8.30005 24.8146 8.30005 24.5862C8.30005 24.3578 8.49418 24.1724 8.73338 24.1724H9.60005C10.3168 24.1724 10.9 23.6154 10.9 22.931V20.862C10.9 20.6336 11.0942 20.4482 11.3334 20.4482C11.5726 20.4482 11.7667 20.6336 11.7667 20.862V22.931C11.7667 23.3969 11.6046 23.8264 11.3325 24.1724H13.5C13.7392 24.1724 13.9334 24.3578 13.9334 24.5862C13.9334 24.8146 13.7392 25 13.5 25Z" fill="#7F56D9" stroke="#7F56D9" stroke-width="0.6"/>
<path d="M14.5111 20.8621H1.8C1.08327 20.8621 0.5 20.3051 0.5 19.6207V17.1379C0.5 16.9095 0.694133 16.7241 0.933333 16.7241H14.5111C14.7503 16.7241 14.9444 16.9095 14.9444 17.1379C14.9444 17.3663 14.7503 17.5517 14.5111 17.5517H1.36667V19.6207C1.36667 19.8483 1.56167 20.0345 1.8 20.0345H14.5111C14.7503 20.0345 14.9444 20.2198 14.9444 20.4483C14.9444 20.6767 14.7503 20.8621 14.5111 20.8621Z" fill="#7F56D9" stroke="#7F56D9" stroke-width="0.6"/>
<path d="M18.2667 6.79316H22.6C22.8392 6.79316 23.0334 6.60778 23.0334 6.37937C23.0334 6.15096 22.8392 5.96558 22.6 5.96558H18.2667C18.0275 5.96558 17.8334 6.15096 17.8334 6.37937C17.8334 6.60778 18.0275 6.79316 18.2667 6.79316Z" fill="#7F56D9" stroke="#7F56D9" stroke-width="0.6"/>
<path d="M20 23.3448H20.8667C21.1059 23.3448 21.3 23.1594 21.3 22.931C21.3 22.7026 21.1059 22.5172 20.8667 22.5172H20C19.7608 22.5172 19.5667 22.7026 19.5667 22.931C19.5667 23.1594 19.7608 23.3448 20 23.3448Z" fill="#7F56D9" stroke="#7F56D9" stroke-width="0.6"/>
<path fill-rule="evenodd" clip-rule="evenodd" d="M16.5334 25H24.3334C25.5285 25 26.5 24.0722 26.5 22.931V6.37927C26.5 5.23803 25.5285 4.3103 24.3334 4.3103H16.5334C15.3382 4.3103 14.3667 5.23803 14.3667 6.37927V22.931C14.3667 24.0722 15.3382 25 16.5334 25ZM15.2334 6.37927C15.2334 5.69485 15.8166 5.13789 16.5334 5.13789H24.3334C25.0501 5.13789 25.6334 5.69485 25.6334 6.37927V22.931C25.6334 23.6154 25.0501 24.1724 24.3334 24.1724H16.5334C15.8166 24.1724 15.2334 23.6154 15.2334 22.931V6.37927Z" fill="#7F56D9"/>
<path d="M24.3334 24.7H16.5334V25.3H24.3334V24.7ZM26.2 22.931C26.2 23.8937 25.376 24.7 24.3334 24.7V25.3C25.681 25.3 26.8 24.2508 26.8 22.931H26.2ZM26.2 6.37927V22.931H26.8V6.37927H26.2ZM24.3334 4.6103C25.376 4.6103 26.2 5.41661 26.2 6.37927H26.8C26.8 5.05945 25.681 4.0103 24.3334 4.0103V4.6103ZM16.5334 4.6103H24.3334V4.0103H16.5334V4.6103ZM14.6667 6.37927C14.6667 5.41661 15.4907 4.6103 16.5334 4.6103V4.0103C15.1857 4.0103 14.0667 5.05945 14.0667 6.37927H14.6667ZM14.6667 22.931V6.37927H14.0667V22.931H14.6667ZM16.5334 24.7C15.4907 24.7 14.6667 23.8937 14.6667 22.931H14.0667C14.0667 24.2508 15.1857 25.3 16.5334 25.3V24.7ZM16.5334 4.83789C15.6641 4.83789 14.9334 5.51627 14.9334 6.37927H15.5334C15.5334 5.87343 15.9691 5.43789 16.5334 5.43789V4.83789ZM24.3334 4.83789H16.5334V5.43789H24.3334V4.83789ZM25.9334 6.37927C25.9334 5.51627 25.2026 4.83789 24.3334 4.83789V5.43789C24.8976 5.43789 25.3334 5.87343 25.3334 6.37927H25.9334ZM25.9334 22.931V6.37927H25.3334V22.931H25.9334ZM24.3334 24.4724C25.2026 24.4724 25.9334 23.794 25.9334 22.931H25.3334C25.3334 23.4368 24.8976 23.8724 24.3334 23.8724V24.4724ZM16.5334 24.4724H24.3334V23.8724H16.5334V24.4724ZM14.9334 22.931C14.9334 23.794 15.6641 24.4724 16.5334 24.4724V23.8724C15.9691 23.8724 15.5334 23.4368 15.5334 22.931H14.9334ZM14.9334 6.37927V22.931H15.5334V6.37927H14.9334Z" fill="#7F56D9"/>
</svg>
